<mxfile host="65bd71144e">
    <diagram id="Lu3c_uBNJHZkfZTHpQTs" name="Page-1">
        <mxGraphModel dx="1112" dy="829" grid="1" gridSize="10" guides="1" tooltips="1" connect="1" arrows="1" fold="1" page="1" pageScale="1" pageWidth="850" pageHeight="1100" math="0" shadow="0">
            <root>
                <mxCell id="0"/>
                <mxCell id="1" parent="0"/>
                <mxCell id="3" value="v" style="rounded=0;whiteSpace=wrap;html=1;" vertex="1" parent="1">
                    <mxGeometry x="100" y="400" width="40" height="40" as="geometry"/>
                </mxCell>
                <mxCell id="7" value="" style="edgeStyle=none;html=1;" edge="1" parent="1" source="4" target="6">
                    <mxGeometry relative="1" as="geometry"/>
                </mxCell>
                <mxCell id="4" value="&lt;span style=&quot;caret-color: rgb(51, 51, 51); font-family: &amp;quot;Open Sans&amp;quot;, &amp;quot;Clear Sans&amp;quot;, &amp;quot;Helvetica Neue&amp;quot;, Helvetica, Arial, &amp;quot;Segoe UI Emoji&amp;quot;, sans-serif; orphans: 4; text-align: left; background-color: rgb(24, 20, 29);&quot;&gt;&lt;font style=&quot;font-size: 12px;&quot; color=&quot;#ffffff&quot;&gt;input request addr&lt;/font&gt;&lt;/span&gt;" style="rounded=0;whiteSpace=wrap;html=1;" vertex="1" parent="1">
                    <mxGeometry x="140" y="400" width="120" height="40" as="geometry"/>
                </mxCell>
                <mxCell id="6" value="=" style="ellipse;whiteSpace=wrap;html=1;aspect=fixed;" vertex="1" parent="1">
                    <mxGeometry x="180" y="470" width="40" height="40" as="geometry"/>
                </mxCell>
                <mxCell id="9" value="" style="edgeStyle=none;html=1;" edge="1" parent="1" source="8" target="6">
                    <mxGeometry relative="1" as="geometry"/>
                </mxCell>
                <mxCell id="8" value="new miss addr" style="text;html=1;strokeColor=none;fillColor=none;align=center;verticalAlign=middle;whiteSpace=wrap;rounded=0;" vertex="1" parent="1">
                    <mxGeometry x="70" y="475" width="90" height="30" as="geometry"/>
                </mxCell>
                <mxCell id="11" value="word 0" style="text;html=1;strokeColor=none;fillColor=none;align=center;verticalAlign=middle;whiteSpace=wrap;rounded=0;labelBackgroundColor=#18141d;fontColor=#FFFFFF;" vertex="1" parent="1">
                    <mxGeometry x="720" y="365" width="60" height="30" as="geometry"/>
                </mxCell>
                <mxCell id="14" value="&lt;div&gt;&lt;div&gt;indicators &amp;amp; codes&lt;/div&gt;&lt;/div&gt;" style="rounded=0;whiteSpace=wrap;html=1;labelBackgroundColor=#18141d;fontColor=#FFFFFF;" vertex="1" parent="1">
                    <mxGeometry x="550" y="360" width="150" height="40" as="geometry"/>
                </mxCell>
                <mxCell id="16" value="&lt;div&gt;&lt;font style=&quot;font-size: 12px;&quot;&gt;Number of words of blocks processed&lt;/font&gt;&lt;/div&gt;" style="rounded=0;whiteSpace=wrap;html=1;labelBackgroundColor=#18141d;fontSize=9;fontColor=#FFFFFF;" vertex="1" parent="1">
                    <mxGeometry x="380" y="400" width="120" height="40" as="geometry"/>
                </mxCell>
                <mxCell id="18" value="&lt;div&gt;Obsolete&lt;/div&gt;" style="rounded=0;whiteSpace=wrap;html=1;labelBackgroundColor=#18141d;fontSize=12;fontColor=#FFFFFF;" vertex="1" parent="1">
                    <mxGeometry x="50" y="400" width="50" height="40" as="geometry"/>
                </mxCell>
                <mxCell id="19" value="&lt;div&gt;Cache buffer address&lt;/div&gt;" style="rounded=0;whiteSpace=wrap;html=1;labelBackgroundColor=#18141d;fontSize=12;fontColor=#FFFFFF;" vertex="1" parent="1">
                    <mxGeometry x="260" y="400" width="120" height="40" as="geometry"/>
                </mxCell>
                <mxCell id="28" value="word 1" style="text;html=1;strokeColor=none;fillColor=none;align=center;verticalAlign=middle;whiteSpace=wrap;rounded=0;labelBackgroundColor=#18141d;fontColor=#FFFFFF;" vertex="1" parent="1">
                    <mxGeometry x="720" y="415" width="60" height="30" as="geometry"/>
                </mxCell>
                <mxCell id="29" value="&lt;div&gt;&lt;div&gt;indicators &amp;amp; codes&lt;/div&gt;&lt;/div&gt;" style="rounded=0;whiteSpace=wrap;html=1;labelBackgroundColor=#18141d;fontColor=#FFFFFF;" vertex="1" parent="1">
                    <mxGeometry x="550" y="410" width="150" height="40" as="geometry"/>
                </mxCell>
                <mxCell id="30" value="word N-1" style="text;html=1;strokeColor=none;fillColor=none;align=center;verticalAlign=middle;whiteSpace=wrap;rounded=0;labelBackgroundColor=#18141d;fontColor=#FFFFFF;" vertex="1" parent="1">
                    <mxGeometry x="720" y="495" width="60" height="30" as="geometry"/>
                </mxCell>
                <mxCell id="31" value="&lt;div&gt;&lt;div&gt;indicators &amp;amp; codes&lt;/div&gt;&lt;/div&gt;" style="rounded=0;whiteSpace=wrap;html=1;labelBackgroundColor=#18141d;fontColor=#FFFFFF;" vertex="1" parent="1">
                    <mxGeometry x="550" y="490" width="150" height="40" as="geometry"/>
                </mxCell>
                <mxCell id="32" value="..." style="text;html=1;strokeColor=none;fillColor=none;align=center;verticalAlign=middle;whiteSpace=wrap;rounded=0;labelBackgroundColor=#18141d;fontSize=12;fontColor=#FFFFFF;" vertex="1" parent="1">
                    <mxGeometry x="595" y="450" width="60" height="30" as="geometry"/>
                </mxCell>
            </root>
        </mxGraphModel>
    </diagram>
</mxfile>